<?xml version="1.0" standalone="yes"?>
<svg xmlns="http://www.w3.org/2000/svg" xmlns:xlink="http://www.w3.org/1999/xlink" width="136" height="147">
<g id="all">
<defs>
<marker id="blue" viewBox="0 0 10 10" refX="5" refY="5" markerUnits="strokeWidth" markerWidth="3" markerHeight="3">
<path fill="blue" stroke="none" d="M 0 0 L 10 0 L 10 10 L 0 10 z" />
</marker>
<marker id="red" viewBox="0 0 10 10" refX="5" refY="5" markerUnits="userSpaceOnUse" markerWidth="0.5" markerHeight="0.5">
<path fill="red" stroke="none" d="M 0 0 L 10 0 L 10 10 L 0 10 z" />
</marker>
<marker id="control" viewBox="0 0 10 10" refX="5" refY="5" markerUnits="userSpaceOnUse" markerWidth="1" markerHeight="1">
<path stroke="green" stroke-width="1" fill="none" d="M 5 0 L 5 10 M 0 5 L 10 5 z" />
</marker>
</defs>
<image x="0" y="0" width="136" height="147" xlink:href="a.png" style="image-rendering: crisp-edges;" />
<path style="fill:none; stroke:green; stroke-width:0.3" d="M52.3 20.5 M38.5 30.0 M49.0 45.5 M7.0 109.4 C-0.5 120.9 6.0 128.0 10.0 134.0 M24.8 111.0 C33.4 97.5 34.8 94.7 57.7 62.2 C58.9 60.4 61.0 62.5 61.7 63.8 M103.5 134.0 C140.7 105.9 138.2 126.6 83.5 39.0 M66.0 11.0 M52.3 20.5 " />
<path style="fill:none; stroke:red; stroke-width:0.3" marker-mid="url(#red)" marker-start="url(#red)" marker-end="url(#red)" d="M52.3 20.5 L38.5 30.0 L49.0 45.5 L7.0 109.4 M10.0 134.0 L24.8 111.0 M57.7 62.2 M61.7 63.8 L103.5 134.0 M83.5 39.0 L66.0 11.0 L52.3 20.5 " />
<path style="fill:none; stroke:green; stroke-width:0.3" d="M48.5 95.0 C36.6 109.0 38.8 106.0 35.0 109.0 M57.0 129.0 M80.0 109.5 M57.0 85.0 M48.5 95.0 " />
<path style="fill:none; stroke:red; stroke-width:0.3" marker-mid="url(#red)" marker-start="url(#red)" marker-end="url(#red)" d="M48.5 95.0 M35.0 109.0 L57.0 129.0 L80.0 109.5 L57.0 85.0 L48.5 95.0 " />
</g>
</svg>
