<?xml version="1.0" standalone="yes"?>
<svg xmlns="http://www.w3.org/2000/svg" xmlns:xlink="http://www.w3.org/1999/xlink" width="132" height="144">
<g id="all">
<defs>
<marker id="blue" viewBox="0 0 10 10" refX="5" refY="5" markerUnits="strokeWidth" markerWidth="3" markerHeight="3">
<path fill="blue" stroke="none" d="M 0 0 L 10 0 L 10 10 L 0 10 z" />
</marker>
<marker id="red" viewBox="0 0 10 10" refX="5" refY="5" markerUnits="userSpaceOnUse" markerWidth="0.5" markerHeight="0.5">
<path fill="red" stroke="none" d="M 0 0 L 10 0 L 10 10 L 0 10 z" />
</marker>
<marker id="control" viewBox="0 0 10 10" refX="5" refY="5" markerUnits="userSpaceOnUse" markerWidth="1" markerHeight="1">
<path stroke="green" stroke-width="1" fill="none" d="M 5 0 L 5 10 M 0 5 L 10 5 z" />
</marker>
</defs>
<image x="0" y="0" width="132" height="144" xlink:href="b.png" style="image-rendering: crisp-edges;" />
<path style="fill:none; stroke:green; stroke-width:0.3" d="M64.8 13.0 C45.2 16.9 27.1 23.1 19.5 30.0 C16.0 33.2 15.6 31.9 7.0 49.0 C4.4 54.2 8.7 56.2 14.6 54.3 M45.0 44.5 M40.0 42.0 C70.0 32.7 81.0 30.7 98.9 31.8 C108.7 32.3 112.0 41.2 105.3 45.9 C99.5 49.9 87.3 59.0 64.0 60.5 M78.1 43.2 C78.6 42.5 79.0 42.8 79.0 39.0 C70.7 40.6 66.5 40.0 54.9 51.6 C40.6 65.9 40.0 64.4 33.5 65.5 C21.2 67.5 16.0 70.2 16.0 73.5 C16.0 76.5 20.5 80.0 29.0 80.0 C26.0 84.4 1.5 111.5 16.0 126.0 C29.8 139.8 52.2 134.3 61.5 131.5 C69.8 129.0 70.5 129.7 89.6 116.7 C94.4 113.4 95.4 112.4 98.5 107.5 C112.1 86.1 80.2 79.8 52.0 74.5 C56.1 68.4 73.3 70.9 97.0 61.0 C129.8 47.3 129.6 25.3 114.0 16.0 C99.0 7.0 80.0 10.0 64.8 13.0 " />
<path style="fill:none; stroke:red; stroke-width:0.3" marker-mid="url(#red)" marker-start="url(#red)" marker-end="url(#red)" d="M64.8 13.0 M19.5 30.0 M7.0 49.0 M14.6 54.3 L45.0 44.5 L40.0 42.0 M98.9 31.8 M105.3 45.9 M64.0 60.5 L78.1 43.2 M79.0 39.0 M54.9 51.6 M33.5 65.5 M16.0 73.5 M29.0 80.0 M16.0 126.0 M61.5 131.5 M89.6 116.7 M98.5 107.5 M52.0 74.5 M97.0 61.0 M114.0 16.0 M64.8 13.0 " />
<path style="fill:none; stroke:green; stroke-width:0.3" d="M56.0 84.5 C110.2 91.3 69.7 109.1 62.3 111.5 C57.5 113.0 29.7 117.7 31.5 103.0 C31.9 99.4 32.3 98.6 34.4 95.8 M44.0 83.0 M56.0 84.5 " />
<path style="fill:none; stroke:red; stroke-width:0.3" marker-mid="url(#red)" marker-start="url(#red)" marker-end="url(#red)" d="M56.0 84.5 M62.3 111.5 M31.5 103.0 M34.4 95.8 L44.0 83.0 L56.0 84.5 " />
</g>
</svg>
