<?xml version="1.0" standalone="yes"?>
<svg xmlns="http://www.w3.org/2000/svg" xmlns:xlink="http://www.w3.org/1999/xlink" width="179" height="143">
<g id="all">
<defs>
<marker id="blue" viewBox="0 0 10 10" refX="5" refY="5" markerUnits="strokeWidth" markerWidth="3" markerHeight="3">
<path fill="blue" stroke="none" d="M 0 0 L 10 0 L 10 10 L 0 10 z" />
</marker>
<marker id="red" viewBox="0 0 10 10" refX="5" refY="5" markerUnits="userSpaceOnUse" markerWidth="0.5" markerHeight="0.5">
<path fill="red" stroke="none" d="M 0 0 L 10 0 L 10 10 L 0 10 z" />
</marker>
<marker id="control" viewBox="0 0 10 10" refX="5" refY="5" markerUnits="userSpaceOnUse" markerWidth="1" markerHeight="1">
<path stroke="green" stroke-width="1" fill="none" d="M 5 0 L 5 10 M 0 5 L 10 5 z" />
</marker>
</defs>
<image x="0" y="0" width="179" height="143" xlink:href="d.png" style="image-rendering: crisp-edges;" />
<path style="fill:none; stroke:green; stroke-width:0.3" d="M89.8 12.5 C76.7 16.0 44.8 31.2 42.5 61.8 C42.1 67.8 42.2 69.0 43.5 73.3 C49.3 91.7 82.3 92.9 106.5 55.5 C109.9 50.2 111.1 50.1 115.6 33.9 C116.0 32.7 115.9 32.4 114.8 31.8 C109.6 28.6 113.3 51.8 85.0 73.0 C77.9 78.3 76.2 79.2 69.5 80.5 C61.4 82.1 33.6 83.7 54.0 51.5 C59.3 43.1 61.0 41.1 69.0 34.0 C82.6 22.0 112.3 4.7 136.0 22.5 C152.0 34.5 145.8 37.2 139.0 44.3 C123.0 60.8 100.2 94.3 85.8 108.8 C79.3 115.2 77.6 116.6 70.3 121.5 M62.0 127.0 M32.4 121.1 C18.9 118.4 10.3 119.8 11.5 127.0 C12.4 132.5 23.7 139.5 51.3 134.5 C67.8 131.5 76.8 136.5 94.3 133.5 C131.1 127.2 149.0 88.3 153.0 74.5 C155.7 65.2 156.0 63.2 156.0 56.5 C156.0 31.7 147.1 40.7 161.0 32.0 M169.0 27.0 C165.8 24.4 165.9 25.3 165.1 25.7 M158.5 29.0 C144.5 36.0 155.4 32.3 137.0 18.5 C125.4 9.8 107.6 7.7 89.8 12.5 " />
<path style="fill:none; stroke:red; stroke-width:0.3" marker-mid="url(#red)" marker-start="url(#red)" marker-end="url(#red)" d="M89.8 12.5 M42.5 61.8 M43.5 73.3 M106.5 55.5 M115.6 33.9 M114.8 31.8 M85.0 73.0 M69.5 80.5 M54.0 51.5 M69.0 34.0 M136.0 22.5 M139.0 44.3 M85.8 108.8 M70.3 121.5 L62.0 127.0 L32.4 121.1 M11.5 127.0 M51.3 134.5 M94.3 133.5 M153.0 74.5 M156.0 56.5 M161.0 32.0 L169.0 27.0 M165.1 25.7 L158.5 29.0 M137.0 18.5 M89.8 12.5 " />
<path style="fill:none; stroke:green; stroke-width:0.3" d="M150.5 44.5 C151.8 48.5 152.0 49.8 152.0 56.5 C152.0 85.0 130.4 107.3 123.5 113.5 C100.6 134.0 85.4 130.0 70.0 130.0 C95.4 115.5 100.2 109.6 110.0 97.5 C115.5 90.7 114.3 93.7 138.2 55.3 C140.0 52.4 139.4 52.8 149.0 40.0 M150.5 44.5 " />
<path style="fill:none; stroke:red; stroke-width:0.3" marker-mid="url(#red)" marker-start="url(#red)" marker-end="url(#red)" d="M150.5 44.5 M152.0 56.5 M123.5 113.5 M70.0 130.0 M110.0 97.5 M138.2 55.3 M149.0 40.0 L150.5 44.5 " />
<path style="fill:none; stroke:green; stroke-width:0.3" d="M22.0 124.0 C24.0 124.0 22.8 123.0 39.0 126.8 M51.0 129.5 C42.9 133.2 28.7 132.2 22.0 130.5 C8.0 127.0 17.5 124.0 22.0 124.0 " />
<path style="fill:none; stroke:red; stroke-width:0.3" marker-mid="url(#red)" marker-start="url(#red)" marker-end="url(#red)" d="M22.0 124.0 M39.0 126.8 L51.0 129.5 M22.0 130.5 M22.0 124.0 " />
</g>
</svg>
