<?xml version="1.0" standalone="yes"?>
<svg xmlns="http://www.w3.org/2000/svg" xmlns:xlink="http://www.w3.org/1999/xlink" width="103" height="150">
<g id="all">
<defs>
<marker id="blue" viewBox="0 0 10 10" refX="5" refY="5" markerUnits="strokeWidth" markerWidth="3" markerHeight="3">
<path fill="blue" stroke="none" d="M 0 0 L 10 0 L 10 10 L 0 10 z" />
</marker>
<marker id="red" viewBox="0 0 10 10" refX="5" refY="5" markerUnits="userSpaceOnUse" markerWidth="0.5" markerHeight="0.5">
<path fill="red" stroke="none" d="M 0 0 L 10 0 L 10 10 L 0 10 z" />
</marker>
<marker id="control" viewBox="0 0 10 10" refX="5" refY="5" markerUnits="userSpaceOnUse" markerWidth="1" markerHeight="1">
<path stroke="green" stroke-width="1" fill="none" d="M 5 0 L 5 10 M 0 5 L 10 5 z" />
</marker>
</defs>
<image x="0" y="0" width="103" height="150" xlink:href="f.png" style="image-rendering: crisp-edges;" />
<path style="fill:none; stroke:green; stroke-width:0.3" d="M18.5 11.0 C13.5 12.4 12.9 16.7 13.5 22.0 C15.1 36.1 21.5 25.8 22.3 32.2 C24.3 49.8 25.1 59.9 21.5 63.5 C18.0 67.0 18.5 74.4 21.0 77.5 C25.5 83.2 17.3 93.4 18.8 136.0 C19.0 140.4 19.6 141.1 24.0 141.5 C28.4 141.9 39.4 140.5 38.2 130.4 C35.9 112.5 35.2 117.5 41.0 84.0 C64.3 89.5 67.8 91.6 70.5 83.5 C72.4 77.7 70.4 71.8 65.0 70.7 M42.0 66.0 M42.0 28.0 C84.5 29.9 85.1 37.9 90.5 32.5 C95.3 27.7 94.1 18.9 83.5 15.0 C69.3 9.8 28.4 8.2 18.5 11.0 " />
<path style="fill:none; stroke:red; stroke-width:0.3" marker-mid="url(#red)" marker-start="url(#red)" marker-end="url(#red)" d="M18.5 11.0 M13.5 22.0 M22.3 32.2 M21.5 63.5 M21.0 77.5 M18.8 136.0 M24.0 141.5 M38.2 130.4 M41.0 84.0 M70.5 83.5 M65.0 70.7 L42.0 66.0 L42.0 28.0 M90.5 32.5 M83.5 15.0 M18.5 11.0 " />
</g>
</svg>
