<?xml version="1.0" standalone="yes"?>
<svg xmlns="http://www.w3.org/2000/svg" xmlns:xlink="http://www.w3.org/1999/xlink" width="156" height="101">
<g id="all">
<defs>
<marker id="blue" viewBox="0 0 10 10" refX="5" refY="5" markerUnits="strokeWidth" markerWidth="3" markerHeight="3">
<path fill="blue" stroke="none" d="M 0 0 L 10 0 L 10 10 L 0 10 z" />
</marker>
<marker id="red" viewBox="0 0 10 10" refX="5" refY="5" markerUnits="userSpaceOnUse" markerWidth="0.5" markerHeight="0.5">
<path fill="red" stroke="none" d="M 0 0 L 10 0 L 10 10 L 0 10 z" />
</marker>
<marker id="control" viewBox="0 0 10 10" refX="5" refY="5" markerUnits="userSpaceOnUse" markerWidth="1" markerHeight="1">
<path stroke="green" stroke-width="1" fill="none" d="M 5 0 L 5 10 M 0 5 L 10 5 z" />
</marker>
</defs>
<image x="0" y="0" width="156" height="101" xlink:href="polygon.png" style="image-rendering: crisp-edges;" />
<path style="fill:none; stroke:red; stroke-width:0.1" marker-mid="url(#red)" marker-start="url(#red)" marker-end="url(#red)" d="M127.0 13.0 L137.0 13.0 L142.0 21.0 L142.0 32.0 L136.0 42.0 L113.0 69.0 L106.0 73.0 L98.0 73.0 L87.0 64.0 L73.0 43.0 L70.0 43.0 L68.5 57.0 L65.0 66.5 L59.5 71.0 L46.0 71.0 L40.0 66.0 L31.0 54.0 L25.0 49.5 L13.0 48.0 L14.0 27.0 L20.5 23.0 L27.5 23.0 L35.0 32.5 L39.0 43.0 L49.0 50.0 L59.0 51.0 L62.0 43.5 L62.0 27.0 L66.0 19.0 L75.5 19.0 L80.0 23.5 L86.0 44.0 L94.0 50.0 L100.5 50.0 L107.0 45.5 L111.0 33.5 L121.0 17.0 L127.0 13.0 " />
</g>
</svg>
