<?xml version="1.0" standalone="yes"?>
<svg xmlns="http://www.w3.org/2000/svg" xmlns:xlink="http://www.w3.org/1999/xlink" width="156" height="101">
<g id="all">
<defs>
<marker id="blue" viewBox="0 0 10 10" refX="5" refY="5" markerUnits="strokeWidth" markerWidth="3" markerHeight="3">
<path fill="blue" stroke="none" d="M 0 0 L 10 0 L 10 10 L 0 10 z" />
</marker>
<marker id="red" viewBox="0 0 10 10" refX="5" refY="5" markerUnits="userSpaceOnUse" markerWidth="0.5" markerHeight="0.5">
<path fill="red" stroke="none" d="M 0 0 L 10 0 L 10 10 L 0 10 z" />
</marker>
<marker id="control" viewBox="0 0 10 10" refX="5" refY="5" markerUnits="userSpaceOnUse" markerWidth="1" markerHeight="1">
<path stroke="green" stroke-width="1" fill="none" d="M 5 0 L 5 10 M 0 5 L 10 5 z" />
</marker>
</defs>
<image x="0" y="0" width="156" height="101" xlink:href="polygon.png" style="image-rendering: crisp-edges;" />
<path style="fill:none; stroke:green; stroke-width:0.3" d="M132.0 13.0 C136.4 13.0 137.3 13.4 139.5 17.0 C148.3 31.0 136.6 41.3 115.6 65.9 C99.1 85.3 85.3 61.4 73.8 44.2 C72.8 42.7 70.1 42.4 69.8 44.5 C67.5 66.5 64.7 71.0 52.8 71.0 C37.3 71.0 39.9 60.6 28.0 51.8 C13.8 41.1 12.4 60.1 13.8 30.8 C14.1 25.2 20.2 23.0 24.0 23.0 C27.1 23.0 27.9 23.5 31.2 27.8 C39.9 38.7 34.8 40.0 44.0 46.5 C56.8 55.4 62.0 50.9 62.0 39.5 C62.0 21.9 64.9 19.0 70.8 19.0 C75.0 19.0 77.6 15.3 84.6 39.2 C87.5 49.2 96.9 52.5 103.8 47.8 C110.5 43.0 114.1 13.0 132.0 13.0 " />
<path style="fill:none; stroke:red; stroke-width:0.3" marker-mid="url(#red)" marker-start="url(#red)" marker-end="url(#red)" d="M132.0 13.0 M139.5 17.0 M115.6 65.9 M73.8 44.2 M69.8 44.5 M52.8 71.0 M28.0 51.8 M13.8 30.8 M24.0 23.0 M31.2 27.8 M44.0 46.5 M62.0 39.5 M70.8 19.0 M84.6 39.2 M103.8 47.8 M132.0 13.0 " />
<g style="fill:none; stroke:green; stroke-width:0.05; stroke-dasharray:0.5,0.5" marker-end="url(#control)">
<path d="M132.0 13.0 L136.4 13.0" />
<path d="M139.5 17.0 L137.3 13.4" />
<path d="M139.5 17.0 L148.3 31.0" />
<path d="M115.6 65.9 L136.6 41.3" />
<path d="M115.6 65.9 L99.1 85.3" />
<path d="M73.8 44.2 L85.3 61.4" />
<path d="M73.8 44.2 L72.8 42.7" />
<path d="M69.8 44.5 L70.1 42.4" />
<path d="M69.8 44.5 L67.5 66.5" />
<path d="M52.8 71.0 L64.7 71.0" />
<path d="M52.8 71.0 L37.3 71.0" />
<path d="M28.0 51.8 L39.9 60.6" />
<path d="M28.0 51.8 L13.8 41.1" />
<path d="M13.8 30.8 L12.4 60.1" />
<path d="M13.8 30.8 L14.1 25.2" />
<path d="M24.0 23.0 L20.2 23.0" />
<path d="M24.0 23.0 L27.1 23.0" />
<path d="M31.2 27.8 L27.9 23.5" />
<path d="M31.2 27.8 L39.9 38.7" />
<path d="M44.0 46.5 L34.8 40.0" />
<path d="M44.0 46.5 L56.8 55.4" />
<path d="M62.0 39.5 L62.0 50.9" />
<path d="M62.0 39.5 L62.0 21.9" />
<path d="M70.8 19.0 L64.9 19.0" />
<path d="M70.8 19.0 L75.0 19.0" />
<path d="M84.6 39.2 L77.6 15.3" />
<path d="M84.6 39.2 L87.5 49.2" />
<path d="M103.8 47.8 L96.9 52.5" />
<path d="M103.8 47.8 L110.5 43.0" />
<path d="M132.0 13.0 L114.1 13.0" />
</g>
</g>
</svg>
