<?xml version="1.0" standalone="yes"?>
<svg xmlns="http://www.w3.org/2000/svg" xmlns:xlink="http://www.w3.org/1999/xlink" width="640" height="400">
<g id="all">
<defs>
<marker id="blue" viewBox="0 0 10 10" refX="5" refY="5" markerUnits="strokeWidth" markerWidth="3" markerHeight="3">
<path fill="blue" stroke="none" d="M 0 0 L 10 0 L 10 10 L 0 10 z" />
</marker>
<marker id="red" viewBox="0 0 10 10" refX="5" refY="5" markerUnits="userSpaceOnUse" markerWidth="0.5" markerHeight="0.5">
<path fill="red" stroke="none" d="M 0 0 L 10 0 L 10 10 L 0 10 z" />
</marker>
<marker id="control" viewBox="0 0 10 10" refX="5" refY="5" markerUnits="userSpaceOnUse" markerWidth="1" markerHeight="1">
<path stroke="green" stroke-width="1" fill="none" d="M 5 0 L 5 10 M 0 5 L 10 5 z" />
</marker>
</defs>
<image x="0" y="0" width="640" height="400" xlink:href="polygon.png" style="image-rendering: crisp-edges;" />
<path style="fill:none; stroke:green; stroke-width:0.3" d="M407.0 26.0 C411.4 26.0 412.3 26.4 414.5 30.0 C423.3 44.0 411.6 54.3 390.6 78.9 C374.1 98.3 360.3 74.4 348.8 57.2 C347.8 55.7 345.1 55.4 344.8 57.5 C342.5 79.5 339.7 84.0 327.8 84.0 C312.3 84.0 314.9 73.6 303.0 64.8 C288.8 54.1 287.4 73.1 288.8 43.8 C289.1 38.2 295.2 36.0 299.0 36.0 C304.1 36.0 309.8 44.9 312.0 50.8 C313.8 55.4 314.6 56.4 319.0 59.5 C343.7 76.8 334.3 45.5 339.0 36.0 C340.8 32.4 341.5 32.0 345.8 32.0 C350.0 32.0 352.6 28.3 359.6 52.2 C362.5 62.2 371.9 65.5 378.8 60.8 C385.5 56.0 389.1 26.0 407.0 26.0 " />
<path style="fill:none; stroke:red; stroke-width:0.3" marker-mid="url(#red)" marker-start="url(#red)" marker-end="url(#red)" d="M407.0 26.0 M414.5 30.0 M390.6 78.9 M348.8 57.2 M344.8 57.5 M327.8 84.0 M303.0 64.8 M288.8 43.8 M299.0 36.0 M312.0 50.8 M319.0 59.5 M339.0 36.0 M345.8 32.0 M359.6 52.2 M378.8 60.8 M407.0 26.0 " />
<g style="fill:none; stroke:green; stroke-width:0.05; stroke-dasharray:0.5,0.5" marker-end="url(#control)">
<path d="M407.0 26.0 L411.4 26.0" />
<path d="M414.5 30.0 L412.3 26.4" />
<path d="M414.5 30.0 L423.3 44.0" />
<path d="M390.6 78.9 L411.6 54.3" />
<path d="M390.6 78.9 L374.1 98.3" />
<path d="M348.8 57.2 L360.3 74.4" />
<path d="M348.8 57.2 L347.8 55.7" />
<path d="M344.8 57.5 L345.1 55.4" />
<path d="M344.8 57.5 L342.5 79.5" />
<path d="M327.8 84.0 L339.7 84.0" />
<path d="M327.8 84.0 L312.3 84.0" />
<path d="M303.0 64.8 L314.9 73.6" />
<path d="M303.0 64.8 L288.8 54.1" />
<path d="M288.8 43.8 L287.4 73.1" />
<path d="M288.8 43.8 L289.1 38.2" />
<path d="M299.0 36.0 L295.2 36.0" />
<path d="M299.0 36.0 L304.1 36.0" />
<path d="M312.0 50.8 L309.8 44.9" />
<path d="M312.0 50.8 L313.8 55.4" />
<path d="M319.0 59.5 L314.6 56.4" />
<path d="M319.0 59.5 L343.7 76.8" />
<path d="M339.0 36.0 L334.3 45.5" />
<path d="M339.0 36.0 L340.8 32.4" />
<path d="M345.8 32.0 L341.5 32.0" />
<path d="M345.8 32.0 L350.0 32.0" />
<path d="M359.6 52.2 L352.6 28.3" />
<path d="M359.6 52.2 L362.5 62.2" />
<path d="M378.8 60.8 L371.9 65.5" />
<path d="M378.8 60.8 L385.5 56.0" />
<path d="M407.0 26.0 L389.1 26.0" />
</g>
<path style="fill:none; stroke:green; stroke-width:0.3" d="M90.5 28.0 C104.9 28.0 115.4 36.7 160.1 48.7 C172.1 51.9 170.6 49.0 180.5 53.5 C185.4 55.7 186.0 56.7 186.0 62.0 C186.0 78.8 180.2 76.0 137.0 76.0 C80.3 76.0 83.0 81.2 64.3 76.0 C55.0 73.4 53.8 75.4 65.4 52.1 C67.3 48.5 67.9 47.6 70.8 44.8 C83.7 31.8 77.6 28.0 90.5 28.0 " />
<path style="fill:none; stroke:red; stroke-width:0.3" marker-mid="url(#red)" marker-start="url(#red)" marker-end="url(#red)" d="M90.5 28.0 M160.1 48.7 M180.5 53.5 M186.0 62.0 M137.0 76.0 M64.3 76.0 M65.4 52.1 M70.8 44.8 M90.5 28.0 " />
<g style="fill:none; stroke:green; stroke-width:0.05; stroke-dasharray:0.5,0.5" marker-end="url(#control)">
<path d="M90.5 28.0 L104.9 28.0" />
<path d="M160.1 48.7 L115.4 36.7" />
<path d="M160.1 48.7 L172.1 51.9" />
<path d="M180.5 53.5 L170.6 49.0" />
<path d="M180.5 53.5 L185.4 55.7" />
<path d="M186.0 62.0 L186.0 56.7" />
<path d="M186.0 62.0 L186.0 78.8" />
<path d="M137.0 76.0 L180.2 76.0" />
<path d="M137.0 76.0 L80.3 76.0" />
<path d="M64.3 76.0 L83.0 81.2" />
<path d="M64.3 76.0 L55.0 73.4" />
<path d="M65.4 52.1 L53.8 75.4" />
<path d="M65.4 52.1 L67.3 48.5" />
<path d="M70.8 44.8 L67.9 47.6" />
<path d="M70.8 44.8 L83.7 31.8" />
<path d="M90.5 28.0 L77.6 28.0" />
</g>
<path style="fill:none; stroke:green; stroke-width:0.3" d="M474.5 71.0 M526.0 71.0 M526.0 135.0 M423.0 135.0 M423.0 71.0 M474.5 71.0 " />
<path style="fill:none; stroke:red; stroke-width:0.3" marker-mid="url(#red)" marker-start="url(#red)" marker-end="url(#red)" d="M474.5 71.0 L526.0 71.0 L526.0 135.0 L423.0 135.0 L423.0 71.0 L474.5 71.0 " />
<g style="fill:none; stroke:green; stroke-width:0.05; stroke-dasharray:0.5,0.5" marker-end="url(#control)">
</g>
<path style="fill:none; stroke:green; stroke-width:0.3" d="M233.0 100.5 M240.0 101.0 M249.0 127.0 M267.3 126.5 C298.0 125.7 306.8 121.0 313.3 121.0 C313.9 121.0 314.0 121.1 314.1 121.7 M319.0 168.0 M313.5 171.0 C302.3 177.1 300.9 170.8 297.0 177.3 C295.2 180.1 295.0 181.1 295.0 185.8 M295.0 191.0 M316.7 192.6 C321.4 193.0 322.4 193.4 325.5 197.0 C334.1 206.8 325.1 223.5 302.5 233.0 C286.2 239.9 268.5 238.7 233.5 244.5 C229.5 245.2 231.6 246.0 203.3 246.0 C179.7 246.0 164.0 245.6 143.5 226.3 C132.3 215.7 135.8 201.9 140.0 192.0 C145.7 178.4 143.7 173.2 139.0 165.8 C133.3 156.8 125.1 142.7 178.5 116.0 C189.7 110.4 190.3 109.1 219.2 101.7 C225.2 100.2 226.8 100.1 233.0 100.5 " />
<path style="fill:none; stroke:red; stroke-width:0.3" marker-mid="url(#red)" marker-start="url(#red)" marker-end="url(#red)" d="M233.0 100.5 L240.0 101.0 L249.0 127.0 L267.3 126.5 M313.3 121.0 M314.1 121.7 L319.0 168.0 L313.5 171.0 M297.0 177.3 M295.0 185.8 L295.0 191.0 L316.7 192.6 M325.5 197.0 M302.5 233.0 M233.5 244.5 M203.3 246.0 M143.5 226.3 M140.0 192.0 M139.0 165.8 M178.5 116.0 M219.2 101.7 M233.0 100.5 " />
<g style="fill:none; stroke:green; stroke-width:0.05; stroke-dasharray:0.5,0.5" marker-end="url(#control)">
<path d="M267.3 126.5 L298.0 125.7" />
<path d="M313.3 121.0 L306.8 121.0" />
<path d="M313.3 121.0 L313.9 121.0" />
<path d="M314.1 121.7 L314.0 121.1" />
<path d="M313.5 171.0 L302.3 177.1" />
<path d="M297.0 177.3 L300.9 170.8" />
<path d="M297.0 177.3 L295.2 180.1" />
<path d="M295.0 185.8 L295.0 181.1" />
<path d="M316.7 192.6 L321.4 193.0" />
<path d="M325.5 197.0 L322.4 193.4" />
<path d="M325.5 197.0 L334.1 206.8" />
<path d="M302.5 233.0 L325.1 223.5" />
<path d="M302.5 233.0 L286.2 239.9" />
<path d="M233.5 244.5 L268.5 238.7" />
<path d="M233.5 244.5 L229.5 245.2" />
<path d="M203.3 246.0 L231.6 246.0" />
<path d="M203.3 246.0 L179.7 246.0" />
<path d="M143.5 226.3 L164.0 245.6" />
<path d="M143.5 226.3 L132.3 215.7" />
<path d="M140.0 192.0 L135.8 201.9" />
<path d="M140.0 192.0 L145.7 178.4" />
<path d="M139.0 165.8 L143.7 173.2" />
<path d="M139.0 165.8 L133.3 156.8" />
<path d="M178.5 116.0 L125.1 142.7" />
<path d="M178.5 116.0 L189.7 110.4" />
<path d="M219.2 101.7 L190.3 109.1" />
<path d="M219.2 101.7 L225.2 100.2" />
<path d="M233.0 100.5 L226.8 100.1" />
</g>
<path style="fill:none; stroke:green; stroke-width:0.3" d="M456.5 248.0 M486.0 249.0 M495.0 307.5 M449.5 353.0 M405.5 335.0 M388.5 363.0 M327.0 346.5 M324.0 345.0 M347.0 289.0 M406.5 281.0 M427.0 247.0 M456.5 248.0 " />
<path style="fill:none; stroke:red; stroke-width:0.3" marker-mid="url(#red)" marker-start="url(#red)" marker-end="url(#red)" d="M456.5 248.0 L486.0 249.0 L495.0 307.5 L449.5 353.0 L405.5 335.0 L388.5 363.0 L327.0 346.5 L324.0 345.0 L347.0 289.0 L406.5 281.0 L427.0 247.0 L456.5 248.0 " />
<g style="fill:none; stroke:green; stroke-width:0.05; stroke-dasharray:0.5,0.5" marker-end="url(#control)">
</g>
<path style="fill:none; stroke:green; stroke-width:0.3" d="M94.5 259.0 C101.2 259.0 102.8 259.3 109.3 261.5 C131.4 269.1 139.6 289.1 141.5 295.5 C157.7 350.7 89.6 386.8 55.3 341.0 C29.6 306.8 55.2 259.0 94.5 259.0 " />
<path style="fill:none; stroke:red; stroke-width:0.3" marker-mid="url(#red)" marker-start="url(#red)" marker-end="url(#red)" d="M94.5 259.0 M109.3 261.5 M141.5 295.5 M55.3 341.0 M94.5 259.0 " />
<g style="fill:none; stroke:green; stroke-width:0.05; stroke-dasharray:0.5,0.5" marker-end="url(#control)">
<path d="M94.5 259.0 L101.2 259.0" />
<path d="M109.3 261.5 L102.8 259.3" />
<path d="M109.3 261.5 L131.4 269.1" />
<path d="M141.5 295.5 L139.6 289.1" />
<path d="M141.5 295.5 L157.7 350.7" />
<path d="M55.3 341.0 L89.6 386.8" />
<path d="M55.3 341.0 L29.6 306.8" />
<path d="M94.5 259.0 L55.2 259.0" />
</g>
</g>
</svg>
