<?xml version="1.0" standalone="yes"?>
<svg xmlns="http://www.w3.org/2000/svg" xmlns:xlink="http://www.w3.org/1999/xlink" width="640" height="400">
<g id="all">
<defs>
<marker id="blue" viewBox="0 0 10 10" refX="5" refY="5" markerUnits="strokeWidth" markerWidth="3" markerHeight="3">
<path fill="blue" stroke="none" d="M 0 0 L 10 0 L 10 10 L 0 10 z" />
</marker>
<marker id="red" viewBox="0 0 10 10" refX="5" refY="5" markerUnits="userSpaceOnUse" markerWidth="0.5" markerHeight="0.5">
<path fill="red" stroke="none" d="M 0 0 L 10 0 L 10 10 L 0 10 z" />
</marker>
<marker id="control" viewBox="0 0 10 10" refX="5" refY="5" markerUnits="userSpaceOnUse" markerWidth="1" markerHeight="1">
<path stroke="green" stroke-width="1" fill="none" d="M 5 0 L 5 10 M 0 5 L 10 5 z" />
</marker>
</defs>
<image x="0" y="0" width="640" height="400" xlink:href="polygon.png" style="image-rendering: crisp-edges;" />
<path style="fill:none; stroke:red; stroke-width:0.1" marker-mid="url(#red)" marker-start="url(#red)" marker-end="url(#red)" d="M402.0 26.0 L412.0 26.0 L417.0 34.0 L417.0 45.0 L411.0 55.0 L388.0 82.0 L381.0 86.0 L373.0 86.0 L362.0 77.0 L348.0 56.0 L345.0 56.0 L343.5 70.0 L340.0 79.5 L334.5 84.0 L321.0 84.0 L315.0 79.0 L306.0 67.0 L300.0 62.5 L288.0 61.0 L289.0 40.0 L295.5 36.0 L302.5 36.0 L310.0 45.5 L314.0 56.0 L324.0 63.0 L334.0 64.0 L337.0 56.5 L337.0 40.0 L341.0 32.0 L350.5 32.0 L355.0 36.5 L361.0 57.0 L369.0 63.0 L375.5 63.0 L382.0 58.5 L386.0 46.5 L396.0 30.0 L402.0 26.0 " />
<path style="fill:none; stroke:red; stroke-width:0.1" marker-mid="url(#red)" marker-start="url(#red)" marker-end="url(#red)" d="M83.0 28.0 L98.0 28.0 L139.0 43.0 L165.0 50.0 L175.0 51.0 L186.0 56.0 L186.0 68.0 L182.5 73.0 L175.5 76.0 L98.5 76.0 L88.5 78.0 L71.5 78.0 L57.0 74.0 L57.0 69.0 L67.5 48.0 L74.0 41.5 L83.0 28.0 " />
<path style="fill:none; stroke:red; stroke-width:0.1" marker-mid="url(#red)" marker-start="url(#red)" marker-end="url(#red)" d="M423.0 71.0 L526.0 71.0 L526.0 135.0 L423.0 135.0 L423.0 71.0 " />
<path style="fill:none; stroke:red; stroke-width:0.1" marker-mid="url(#red)" marker-start="url(#red)" marker-end="url(#red)" d="M226.0 100.0 L240.0 101.0 L249.0 127.0 L285.5 126.0 L312.5 121.0 L314.0 121.0 L319.0 168.0 L308.0 174.0 L299.0 174.0 L295.0 180.5 L295.0 191.0 L322.0 193.0 L329.0 201.0 L328.0 213.0 L312.0 229.0 L293.0 237.0 L242.5 243.0 L224.5 246.0 L182.0 246.0 L167.0 242.0 L148.0 230.5 L139.0 222.0 L136.0 215.5 L136.0 201.5 L144.0 182.5 L143.0 172.0 L135.0 159.5 L136.0 147.0 L147.5 134.0 L162.5 124.0 L194.5 108.0 L226.0 100.0 " />
<path style="fill:none; stroke:red; stroke-width:0.1" marker-mid="url(#red)" marker-start="url(#red)" marker-end="url(#red)" d="M427.0 247.0 L486.0 249.0 L495.0 307.5 L449.5 353.0 L405.5 335.0 L388.5 363.0 L327.0 346.5 L324.0 345.0 L347.0 289.0 L406.5 281.0 L427.0 247.0 " />
<path style="fill:none; stroke:red; stroke-width:0.1" marker-mid="url(#red)" marker-start="url(#red)" marker-end="url(#red)" d="M87.0 259.0 L102.0 259.0 L116.5 264.0 L128.5 273.0 L139.0 287.0 L144.0 304.0 L144.0 317.0 L139.0 334.0 L128.5 348.0 L116.5 357.0 L102.0 362.0 L87.0 362.0 L72.5 357.0 L60.5 348.0 L50.0 334.0 L45.0 317.0 L45.0 304.0 L50.0 287.0 L60.5 273.0 L72.5 264.0 L87.0 259.0 " />
</g>
</svg>
